<svg class="MuiSvgIcon-root MuiSvgIcon-fontSizeMedium css-1elpzs6" focusable="false" aria-hidden="true" viewBox="0 0 900 897" fill="none" xmlns="http://www.w3.org/2000/svg"><g><path fill="#22a7cc" d="M 418.5,-0.5 C 429.167,-0.5 439.833,-0.5 450.5,-0.5C 450.298,88.1976 450.298,176.864 450.5,265.5C 439.025,266.492 428.358,269.992 418.5,276C 404.782,285.381 392.615,296.548 382,309.5C 372.848,320.473 364.182,331.807 356,343.5C 323.747,395.011 290.747,446.011 257,496.5C 238.747,522.431 217.914,546.264 194.5,568C 150.762,604.844 100.096,625.178 42.5,629C 246.833,629.5 451.166,629.667 655.5,629.5C 587.001,630.333 518.335,630.833 449.5,631C 450.434,719.1 450.767,807.6 450.5,896.5C 439.833,896.5 429.167,896.5 418.5,896.5C 312.939,887.869 220.939,848.369 142.5,778C 134.964,770.632 127.631,763.132 120.5,755.5C 120.5,753.5 119.5,752.5 117.5,752.5C 117.573,750.973 116.906,749.973 115.5,749.5C 113.5,748.167 111.833,746.5 110.5,744.5C 110.262,742.596 109.262,741.262 107.5,740.5C 105.833,739.5 104.5,738.167 103.5,736.5C 103.573,734.973 102.906,733.973 101.5,733.5C 100.5,733.167 99.8333,732.5 99.5,731.5C 99.573,729.973 98.9063,728.973 97.5,728.5C 96.5,728.167 95.8333,727.5 95.5,726.5C 95.4456,724.368 94.4456,723.035 92.5,722.5C 92.4456,720.368 91.4456,719.035 89.5,718.5C 89.2624,716.596 88.2624,715.262 86.5,714.5C 86.4456,712.368 85.4456,711.035 83.5,710.5C 83.573,708.973 82.9063,707.973 81.5,707.5C 81.4456,705.368 80.4456,704.035 78.5,703.5C 78.573,701.973 77.9063,700.973 76.5,700.5C 76.573,698.973 75.9063,697.973 74.5,697.5C 74.573,695.973 73.9063,694.973 72.5,694.5C 72.573,692.973 71.9063,691.973 70.5,691.5C 69.6618,691.158 69.3284,690.492 69.5,689.5C 69.573,687.973 68.9063,686.973 67.5,686.5C 67.573,684.973 66.9063,683.973 65.5,683.5C 65.573,681.973 64.9063,680.973 63.5,680.5C 62.6618,680.158 62.3284,679.492 62.5,678.5C 62.2503,676.326 61.2503,674.659 59.5,673.5C 58.6618,673.158 58.3284,672.492 58.5,671.5C 58.2503,669.326 57.2503,667.659 55.5,666.5C 54.6618,666.158 54.3284,665.492 54.5,664.5C 53.2583,660.345 51.2583,656.678 48.5,653.5C 46.9925,651.819 45.9925,649.819 45.5,647.5C 45.7709,645.62 45.1042,644.287 43.5,643.5C 42.6236,639.418 40.9569,635.751 38.5,632.5C 37.9579,629.088 36.6246,626.088 34.5,623.5C 33.6618,623.158 33.3284,622.492 33.5,621.5C 33.5979,619.447 32.9313,617.78 31.5,616.5C 30.6303,611.777 28.9637,607.444 26.5,603.5C 11.5832,560.58 2.58324,516.58 -0.5,471.5C -0.5,455.833 -0.5,440.167 -0.5,424.5C 1.42379,399.452 4.75713,374.452 9.5,349.5C 9.23219,347.901 9.56552,346.568 10.5,345.5C 12.1016,341.761 13.1016,337.761 13.5,333.5C 13.2322,331.901 13.5655,330.568 14.5,329.5C 15.9238,327.485 16.5905,325.152 16.5,322.5C 17.9238,320.485 18.5905,318.152 18.5,315.5C 20.2798,314.01 20.9465,312.01 20.5,309.5C 21.2613,305.216 22.5947,301.216 24.5,297.5C 26.2132,296.365 26.8799,294.698 26.5,292.5C 26.2627,291.209 26.596,290.209 27.5,289.5C 29.6545,287.383 30.6545,284.716 30.5,281.5C 81.9232,158.577 169.923,73.4107 294.5,26C 334.838,11.8343 376.171,3.00092 418.5,-0.5 Z"></path></g><g><path fill="#2894b2" d="M 450.5,-0.5 C 460.167,-0.5 469.833,-0.5 479.5,-0.5C 616.337,11.8213 726.837,71.8213 811,179.5C 862.942,250.742 892.442,330.409 899.5,418.5C 899.5,438.167 899.5,457.833 899.5,477.5C 885.676,626.05 817.342,741.883 694.5,825C 628.735,866.533 557.068,890.366 479.5,896.5C 469.833,896.5 460.167,896.5 450.5,896.5C 450.767,807.6 450.434,719.1 449.5,631C 518.335,630.833 587.001,630.333 655.5,629.5C 723.167,629.667 790.834,629.5 858.5,629C 829.854,625.805 802.187,618.805 775.5,608C 738.246,591.093 706.413,566.926 680,535.5C 655.039,504.912 632.039,472.912 611,439.5C 585.149,395.115 556.816,352.449 526,311.5C 514.72,297.883 501.887,286.05 487.5,276C 476.141,268.934 463.808,265.434 450.5,265.5C 450.298,176.864 450.298,88.1976 450.5,-0.5 Z"></path></g><g><path fill="#fefefe" d="M 450.5,265.5 C 463.808,265.434 476.141,268.934 487.5,276C 501.887,286.05 514.72,297.883 526,311.5C 556.816,352.449 585.149,395.115 611,439.5C 632.039,472.912 655.039,504.912 680,535.5C 706.413,566.926 738.246,591.093 775.5,608C 802.187,618.805 829.854,625.805 858.5,629C 790.834,629.5 723.167,629.667 655.5,629.5C 451.166,629.667 246.833,629.5 42.5,629C 100.096,625.178 150.762,604.844 194.5,568C 217.914,546.264 238.747,522.431 257,496.5C 290.747,446.011 323.747,395.011 356,343.5C 364.182,331.807 372.848,320.473 382,309.5C 392.615,296.548 404.782,285.381 418.5,276C 428.358,269.992 439.025,266.492 450.5,265.5 Z"></path></g><g><path fill="#e3e4e3" d="M 551.5,352.5 C 550.501,444.332 550.167,536.332 550.5,628.5C 516.833,628.5 483.167,628.5 449.5,628.5C 450.69,508.238 450.69,388.238 449.5,268.5C 450.348,267.009 451.681,266.342 453.5,266.5C 471.023,269.096 486.357,276.263 499.5,288C 519.601,307.427 536.934,328.927 551.5,352.5 Z"></path></g><g><path fill="#a8d3e0" d="M 30.5,281.5 C 30.6545,284.716 29.6545,287.383 27.5,289.5C 27.9802,286.557 28.9802,283.89 30.5,281.5 Z"></path></g><g><path fill="#b8d9e4" d="M 26.5,292.5 C 26.8799,294.698 26.2132,296.365 24.5,297.5C 24.4021,295.447 25.0687,293.78 26.5,292.5 Z"></path></g><g><path fill="#b8d9e3" d="M 20.5,309.5 C 20.9465,312.01 20.2798,314.01 18.5,315.5C 18.595,313.214 19.2616,311.214 20.5,309.5 Z"></path></g><g><path fill="#f9f9f9" d="M 18.5,315.5 C 18.5905,318.152 17.9238,320.485 16.5,322.5C 16.4095,319.848 17.0762,317.515 18.5,315.5 Z"></path></g><g><path fill="#eeeeee" d="M 16.5,322.5 C 16.5905,325.152 15.9238,327.485 14.5,329.5C 14.4095,326.848 15.0762,324.515 16.5,322.5 Z"></path></g><g><path fill="#f4f4f4" d="M 13.5,333.5 C 13.1016,337.761 12.1016,341.761 10.5,345.5C 10.5841,341.163 11.5841,337.163 13.5,333.5 Z"></path></g><g><path fill="#23a7cc" d="M 551.5,352.5 C 574.865,387.724 597.698,423.391 620,459.5C 630.667,474.833 641.333,490.167 652,505.5C 652.5,546.499 652.667,587.499 652.5,628.5C 618.833,628.5 585.167,628.5 551.5,628.5C 551.5,536.5 551.5,444.5 551.5,352.5 Z"></path></g><g><path fill="#2894b2" d="M 346.5,367.5 C 347.499,454.332 347.833,541.332 347.5,628.5C 313.833,628.5 280.167,628.5 246.5,628.5C 246.333,589.499 246.5,550.499 247,511.5C 258.052,497.449 268.719,483.115 279,468.5C 301.33,434.679 323.83,401.013 346.5,367.5 Z"></path></g><g><path fill="#efefef" d="M 9.5,349.5 C 4.75713,374.452 1.42379,399.452 -0.5,424.5C -0.5,418.167 -0.5,411.833 -0.5,405.5C 1.62523,386.625 4.95856,367.959 9.5,349.5 Z"></path></g><g><path fill="#efefef" d="M -0.5,471.5 C 2.58324,516.58 11.5832,560.58 26.5,603.5C 20.0656,588.027 14.899,572.027 11,555.5C 5.91235,533.911 2.07901,512.245 -0.5,490.5C -0.5,484.167 -0.5,477.833 -0.5,471.5 Z"></path></g><g><path fill="#e9e9e9" d="M 26.5,603.5 C 28.9637,607.444 30.6303,611.777 31.5,616.5C 29.0363,612.556 27.3697,608.223 26.5,603.5 Z"></path></g><g><path fill="#ececec" d="M 31.5,616.5 C 32.9313,617.78 33.5979,619.447 33.5,621.5C 32.0687,620.22 31.4021,618.553 31.5,616.5 Z"></path></g><g><path fill="#f5f5f5" d="M 34.5,623.5 C 36.6246,626.088 37.9579,629.088 38.5,632.5C 36.3754,629.912 35.0421,626.912 34.5,623.5 Z"></path></g><g><path fill="#f8f8f8" d="M 38.5,632.5 C 40.9569,635.751 42.6236,639.418 43.5,643.5C 41.0431,640.249 39.3764,636.582 38.5,632.5 Z"></path></g><g><path fill="#f4f4f4" d="M 43.5,643.5 C 45.1042,644.287 45.7709,645.62 45.5,647.5C 44.3263,646.486 43.6596,645.153 43.5,643.5 Z"></path></g><g><path fill="#e9e9e9" d="M 48.5,653.5 C 51.2583,656.678 53.2583,660.345 54.5,664.5C 51.7417,661.322 49.7417,657.655 48.5,653.5 Z"></path></g><g><path fill="#e7e7e7" d="M 55.5,666.5 C 57.2503,667.659 58.2503,669.326 58.5,671.5C 56.7497,670.341 55.7497,668.674 55.5,666.5 Z"></path></g><g><path fill="#e3e4e3" d="M 59.5,673.5 C 61.2503,674.659 62.2503,676.326 62.5,678.5C 60.7497,677.341 59.7497,675.674 59.5,673.5 Z"></path></g><g><path fill="#e9e9e9" d="M 63.5,680.5 C 64.9063,680.973 65.573,681.973 65.5,683.5C 64.0937,683.027 63.427,682.027 63.5,680.5 Z"></path></g><g><path fill="#e3e4e3" d="M 65.5,683.5 C 66.9063,683.973 67.573,684.973 67.5,686.5C 66.0937,686.027 65.427,685.027 65.5,683.5 Z"></path></g><g><path fill="#f4f4f4" d="M 67.5,686.5 C 68.9063,686.973 69.573,687.973 69.5,689.5C 68.0937,689.027 67.427,688.027 67.5,686.5 Z"></path></g><g><path fill="#f9f9f9" d="M 70.5,691.5 C 71.9063,691.973 72.573,692.973 72.5,694.5C 71.0937,694.027 70.427,693.027 70.5,691.5 Z"></path></g><g><path fill="#f9f9f9" d="M 72.5,694.5 C 73.9063,694.973 74.573,695.973 74.5,697.5C 73.0937,697.027 72.427,696.027 72.5,694.5 Z"></path></g><g><path fill="#e3e4e3" d="M 74.5,697.5 C 75.9063,697.973 76.573,698.973 76.5,700.5C 75.0937,700.027 74.427,699.027 74.5,697.5 Z"></path></g><g><path fill="#f4f4f4" d="M 76.5,700.5 C 77.9063,700.973 78.573,701.973 78.5,703.5C 77.0937,703.027 76.427,702.027 76.5,700.5 Z"></path></g><g><path fill="#e0ebef" d="M 78.5,703.5 C 80.4456,704.035 81.4456,705.368 81.5,707.5C 80.0256,706.564 79.0256,705.23 78.5,703.5 Z"></path></g><g><path fill="#f9f9f9" d="M 81.5,707.5 C 82.9063,707.973 83.573,708.973 83.5,710.5C 82.0937,710.027 81.427,709.027 81.5,707.5 Z"></path></g><g><path fill="#e0ebef" d="M 83.5,710.5 C 85.4456,711.035 86.4456,712.368 86.5,714.5C 85.0256,713.564 84.0256,712.23 83.5,710.5 Z"></path></g><g><path fill="#f4f4f4" d="M 86.5,714.5 C 88.2624,715.262 89.2624,716.596 89.5,718.5C 87.7376,717.738 86.7376,716.404 86.5,714.5 Z"></path></g><g><path fill="#e0ebef" d="M 89.5,718.5 C 91.4456,719.035 92.4456,720.368 92.5,722.5C 91.0256,721.564 90.0256,720.23 89.5,718.5 Z"></path></g><g><path fill="#e0ebef" d="M 92.5,722.5 C 94.4456,723.035 95.4456,724.368 95.5,726.5C 94.0256,725.564 93.0256,724.23 92.5,722.5 Z"></path></g><g><path fill="#f4f4f4" d="M 97.5,728.5 C 98.9063,728.973 99.573,729.973 99.5,731.5C 98.0937,731.027 97.427,730.027 97.5,728.5 Z"></path></g><g><path fill="#e3e4e3" d="M 101.5,733.5 C 102.906,733.973 103.573,734.973 103.5,736.5C 102.094,736.027 101.427,735.027 101.5,733.5 Z"></path></g><g><path fill="#f3f3f3" d="M 107.5,740.5 C 109.262,741.262 110.262,742.596 110.5,744.5C 108.738,743.738 107.738,742.404 107.5,740.5 Z"></path></g><g><path fill="#e3e4e3" d="M 115.5,749.5 C 116.906,749.973 117.573,750.973 117.5,752.5C 116.094,752.027 115.427,751.027 115.5,749.5 Z"></path></g><g><path fill="#dbe8ec" d="M 117.5,752.5 C 119.5,752.5 120.5,753.5 120.5,755.5C 119.167,754.833 118.167,753.833 117.5,752.5 Z"></path></g></svg>